<?xml version="1.0" standalone="no"?>
<!DOCTYPE svg PUBLIC "-//W3C//DTD SVG 20010904//EN"
 "http://www.w3.org/TR/2001/REC-SVG-20010904/DTD/svg10.dtd">
<svg version="1.0" xmlns="http://www.w3.org/2000/svg"
 width="1000.000000pt" height="300.000000pt" viewBox="0 0 1000.000000 300.000000"
 preserveAspectRatio="xMidYMid meet">

<g transform="translate(0.000000,300.000000) scale(0.100000,-0.100000)"
fill="#000000" stroke="none">
<path d="M490 1501 l0 -1051 545 0 545 0 0 315 0 314 43 24 c23 14 105 61 182
104 l140 80 3 -229 2 -228 165 0 165 0 0 531 c0 421 -3 530 -12 526 -7 -3
-164 -90 -348 -195 l-335 -190 -5 206 -5 206 -75 44 c-41 25 -271 159 -510
299 -239 141 -450 264 -467 275 l-33 20 0 -1051z m740 196 c179 -99 331 -185
338 -192 9 -8 12 -60 10 -217 l-3 -207 -185 105 -185 104 -3 -230 -2 -230
-170 0 -170 0 0 535 0 536 23 -12 c12 -7 168 -93 347 -192z"/>
<path d="M2662 1508 l3 -343 67 -3 68 -3 2 213 3 213 110 -213 110 -213 54 3
54 3 106 205 106 205 5 -205 5 -205 68 -3 67 -3 0 346 0 346 -71 -3 -70 -3
-130 -250 c-71 -137 -133 -253 -137 -257 -4 -4 -68 109 -142 252 l-135 260
-73 0 -72 0 2 -342z"/>
<path d="M4340 1756 l0 -95 -42 -3 -43 -3 0 -60 0 -60 43 -3 42 -3 0 -107 c0
-128 11 -173 53 -218 26 -28 43 -36 88 -44 31 -4 75 -6 98 -3 l41 6 0 58 0 58
-55 -2 c-82 -3 -89 9 -93 143 l-4 109 69 3 68 3 0 60 0 60 -67 3 -68 3 0 94 0
95 -65 0 -65 0 0 -94z"/>
<path d="M5390 1510 l0 -340 65 0 65 0 2 211 3 212 109 -212 108 -211 57 0 56
0 110 213 110 212 3 -212 2 -213 65 0 65 0 0 340 0 340 -68 0 -67 0 -135 -260
c-74 -143 -138 -260 -142 -260 -4 0 -67 117 -140 260 l-133 260 -67 0 -68 0 0
-340z"/>
<path d="M7052 1573 c3 -264 4 -280 25 -323 30 -60 67 -80 158 -87 l75 -6 0
62 0 61 -44 0 c-36 0 -48 5 -65 26 -20 25 -21 39 -21 285 l0 259 -66 0 -65 0
3 -277z"/>
<path d="M7400 1785 l0 -65 65 0 65 0 0 65 0 65 -65 0 -65 0 0 -65z"/>
<path d="M8360 1750 l0 -100 -40 0 -40 0 0 -55 0 -55 39 0 38 0 5 -122 c4 -95
10 -134 25 -170 30 -67 58 -81 169 -86 l94 -4 0 59 0 60 -60 -1 c-88 -2 -94 8
-98 149 l-4 115 71 0 71 0 0 55 0 54 -67 3 -68 3 -3 98 -3 97 -64 0 -65 0 0
-100z"/>
<path d="M8740 1785 l0 -65 65 0 65 0 0 65 0 65 -65 0 -65 0 0 -65z"/>
<path d="M4810 1660 c-49 -17 -120 -74 -120 -97 0 -9 78 -43 98 -43 7 0 27 10
43 23 27 19 43 22 128 22 109 0 131 -9 131 -55 l0 -27 -143 -6 c-204 -8 -243
-27 -262 -128 -14 -74 29 -152 98 -178 49 -19 161 -24 215 -11 28 6 62 22 76
35 l26 24 0 -29 c0 -30 0 -30 60 -30 l60 0 0 203 c0 216 -2 224 -55 269 -57
49 -250 65 -355 28z m280 -318 c0 -40 -3 -44 -37 -60 -25 -10 -66 -16 -116
-17 -73 0 -80 2 -102 27 -23 27 -24 61 -2 75 23 14 85 21 169 20 l88 -2 0 -43z"/>
<path d="M6496 1669 c-52 -13 -101 -44 -127 -80 l-21 -29 44 -20 c55 -25 67
-25 96 2 19 19 37 24 104 27 45 2 98 -2 120 -8 36 -11 38 -14 38 -51 l0 -38
-157 -4 c-171 -4 -199 -11 -226 -58 -24 -40 -23 -136 3 -177 28 -47 59 -63
141 -72 113 -13 173 -3 218 35 l31 26 0 -26 c0 -25 2 -26 60 -26 l60 0 0 199
0 199 -27 33 c-44 51 -103 72 -218 75 -55 2 -118 -1 -139 -7z m254 -324 c0
-40 -3 -46 -32 -62 -24 -13 -56 -18 -116 -18 -79 0 -85 2 -107 28 -18 21 -22
33 -16 50 12 32 63 46 174 46 l97 1 0 -45z"/>
<path d="M3775 1658 c-48 -17 -93 -56 -117 -101 -19 -36 -23 -58 -23 -147 0
-89 4 -111 23 -147 46 -87 117 -117 265 -111 81 3 112 8 150 27 45 22 102 85
91 102 -2 4 -27 15 -55 24 -49 17 -51 17 -73 -4 -79 -75 -266 -39 -266 51 0
17 15 18 206 18 l207 0 -6 72 c-10 120 -61 192 -156 218 -46 13 -207 12 -246
-2z m192 -109 c40 -15 73 -49 73 -76 0 -23 0 -23 -135 -23 -135 0 -135 0 -135
23 0 62 116 107 197 76z"/>
<path d="M7799 1655 c-29 -9 -59 -29 -78 -50 -26 -31 -31 -44 -31 -90 0 -99
50 -130 245 -155 125 -16 162 -43 114 -86 -14 -12 -40 -19 -84 -22 -72 -5
-130 11 -145 39 -9 15 -22 19 -70 19 -58 0 -60 -1 -60 -26 0 -41 31 -83 80
-107 39 -19 61 -22 170 -22 110 0 130 3 167 23 24 12 50 33 59 47 25 38 29 97
9 138 -27 57 -67 76 -201 92 -102 13 -164 32 -164 51 0 19 24 43 51 53 68 23
181 4 195 -34 5 -11 22 -15 71 -15 l66 0 -7 32 c-17 88 -77 120 -231 125 -78
2 -124 -2 -156 -12z"/>
<path d="M9163 1656 c-93 -30 -139 -93 -150 -208 -17 -187 64 -288 238 -296
107 -5 176 16 223 68 20 22 36 44 36 49 0 5 -26 19 -57 31 -48 18 -59 19 -68
7 -19 -26 -54 -37 -119 -37 -54 0 -69 4 -93 24 -27 23 -28 28 -28 116 0 88 1
93 28 116 47 40 179 32 212 -13 9 -12 20 -11 68 7 31 12 57 26 57 32 0 25 -88
95 -133 106 -60 15 -161 14 -214 -2z"/>
<path d="M7400 1410 l0 -240 65 0 65 0 0 240 0 240 -65 0 -65 0 0 -240z"/>
<path d="M8740 1410 l0 -240 65 0 65 0 0 240 0 240 -65 0 -65 0 0 -240z"/>
</g>
</svg>
